<svg width="247" height="67" viewBox="0 0 247 67" fill="none" xmlns="http://www.w3.org/2000/svg">
<rect width="247" height="67" rx="33.5" fill="#4441F9"/>
<path d="M218.454 35.3783C218.816 35.0027 219.02 34.4935 219.02 33.9627C219.02 33.4319 218.816 32.9227 218.454 32.5471L212.649 26.5376C212.282 26.1838 211.797 25.9912 211.295 26.0003C210.794 26.0095 210.315 26.2197 209.96 26.5867C209.606 26.9537 209.403 27.4489 209.394 27.9678C209.385 28.4868 209.571 28.989 209.913 29.3688L214.345 33.9627L209.908 38.5566C209.723 38.7415 209.576 38.9626 209.474 39.2071C209.373 39.4515 209.32 39.7144 209.318 39.9804C209.315 40.2464 209.365 40.5101 209.462 40.7562C209.559 41.0024 209.703 41.226 209.885 41.414C210.067 41.6019 210.283 41.7506 210.521 41.8512C210.759 41.9518 211.014 42.0024 211.271 41.9999C211.528 41.9975 211.782 41.9421 212.018 41.837C212.254 41.7319 212.468 41.5792 212.646 41.3878L218.454 35.3783ZM199.811 33.9627C199.811 34.5294 199.593 35.0729 199.206 35.4736C198.819 35.8743 198.294 36.0994 197.746 36.0994C197.198 36.0994 196.673 35.8743 196.286 35.4736C195.899 35.0729 195.681 34.5294 195.681 33.9627C195.681 33.396 195.899 32.8525 196.286 32.4518C196.673 32.0511 197.198 31.826 197.746 31.826C198.294 31.826 198.819 32.0511 199.206 32.4518C199.593 32.8525 199.811 33.396 199.811 33.9627ZM205.014 36.0994C205.285 36.0994 205.554 36.0442 205.804 35.9368C206.055 35.8294 206.282 35.672 206.474 35.4736C206.666 35.2752 206.818 35.0396 206.922 34.7804C207.026 34.5212 207.079 34.2433 207.079 33.9627C207.079 33.6821 207.026 33.4043 206.922 33.145C206.818 32.8858 206.666 32.6502 206.474 32.4518C206.282 32.2534 206.055 32.096 205.804 31.9886C205.554 31.8813 205.285 31.826 205.014 31.826C204.467 31.826 203.941 32.0511 203.554 32.4518C203.167 32.8525 202.949 33.396 202.949 33.9627C202.949 34.5294 203.167 35.0729 203.554 35.4736C203.941 35.8743 204.467 36.0994 205.014 36.0994Z" fill="#FBFBFA"/>
<path d="M42.322 40.16C41.122 40.16 40.2527 39.912 39.714 39.416C39.1753 38.92 38.882 38.096 38.834 36.944C38.8287 36.7733 38.826 36.5867 38.826 36.384C38.826 36.176 38.8313 35.9707 38.842 35.768C38.8527 35.56 38.8713 35.3707 38.898 35.2H41.154C41.1327 35.5893 41.1193 35.9733 41.114 36.352C41.1087 36.7307 41.122 37.0773 41.154 37.392C41.1807 37.6533 41.2927 37.856 41.49 38C41.6927 38.1387 41.97 38.208 42.322 38.208C42.6527 38.208 42.914 38.1387 43.106 38C43.298 37.856 43.41 37.6533 43.442 37.392C43.4633 37.2107 43.4767 37.032 43.482 36.856C43.4927 36.6747 43.4927 36.496 43.482 36.32C43.4767 36.1387 43.4633 35.9573 43.442 35.776C43.4207 35.552 43.3247 35.3467 43.154 35.16C42.9833 34.9733 42.77 34.8533 42.514 34.8L41.042 34.464C40.482 34.336 40.0393 34.136 39.714 33.864C39.3887 33.592 39.154 33.2533 39.01 32.848C38.866 32.4427 38.786 31.9733 38.77 31.44C38.7647 31.2053 38.762 30.9973 38.762 30.816C38.762 30.6293 38.7647 30.4373 38.77 30.24C38.802 29.4773 38.9433 28.8613 39.194 28.392C39.4447 27.9227 39.8233 27.5813 40.33 27.368C40.842 27.1493 41.506 27.04 42.322 27.04C43.5167 27.04 44.3807 27.288 44.914 27.784C45.4527 28.2747 45.746 29.0933 45.794 30.24C45.8047 30.4693 45.8047 30.7493 45.794 31.08C45.7887 31.4107 45.778 31.7173 45.762 32H43.458C43.474 31.632 43.4847 31.264 43.49 30.896C43.4953 30.528 43.49 30.16 43.474 29.792C43.4687 29.536 43.3647 29.3387 43.162 29.2C42.9647 29.0613 42.6847 28.992 42.322 28.992C41.986 28.992 41.7167 29.0613 41.514 29.2C41.3167 29.3387 41.202 29.536 41.17 29.792C41.138 30.064 41.122 30.3387 41.122 30.616C41.122 30.8933 41.138 31.168 41.17 31.44C41.1967 31.6533 41.2713 31.8507 41.394 32.032C41.5167 32.208 41.714 32.3253 41.986 32.384L43.282 32.656C43.8847 32.784 44.37 32.9893 44.738 33.272C45.1113 33.5493 45.386 33.8987 45.562 34.32C45.738 34.7413 45.8367 35.2267 45.858 35.776C45.8633 35.8987 45.866 36.0267 45.866 36.16C45.866 36.2933 45.8633 36.4267 45.858 36.56C45.8527 36.6933 45.8473 36.8213 45.842 36.944C45.794 38.096 45.498 38.92 44.954 39.416C44.41 39.912 43.5327 40.16 42.322 40.16ZM51.231 34.096C51.2363 33.9893 51.239 33.8507 51.239 33.68C51.2443 33.5093 51.2443 33.3387 51.239 33.168C51.239 32.9973 51.2363 32.8587 51.231 32.752C51.215 32.5173 51.1483 32.3387 51.031 32.216C50.9137 32.0933 50.6817 32.032 50.335 32.032C49.999 32.032 49.7643 32.088 49.631 32.2C49.503 32.312 49.4337 32.496 49.423 32.752C49.407 33.2373 49.3937 33.6827 49.383 34.088C49.3777 34.488 49.375 34.872 49.375 35.24C49.375 35.608 49.3777 35.9813 49.383 36.36C49.3937 36.7333 49.407 37.1413 49.423 37.584C49.4337 37.8613 49.5083 38.0613 49.647 38.184C49.791 38.3067 50.031 38.368 50.367 38.368C50.703 38.368 50.927 38.3013 51.039 38.168C51.151 38.0293 51.215 37.8293 51.231 37.568C51.2417 37.408 51.247 37.2293 51.247 37.032C51.247 36.8347 51.2417 36.5813 51.231 36.272H53.615C53.6257 36.336 53.6337 36.4827 53.639 36.712C53.6443 36.936 53.6417 37.136 53.631 37.312C53.583 38.3253 53.3057 39.0533 52.799 39.496C52.2923 39.9387 51.4817 40.16 50.367 40.16C49.183 40.16 48.3377 39.936 47.831 39.488C47.3243 39.0347 47.039 38.3093 46.975 37.312C46.959 37.0613 46.9483 36.7387 46.943 36.344C46.9377 35.9493 46.935 35.5387 46.935 35.112C46.935 34.68 46.9377 34.2853 46.943 33.928C46.9537 33.5653 46.9643 33.296 46.975 33.12C47.0497 32.0853 47.3483 31.3467 47.871 30.904C48.3937 30.4613 49.215 30.24 50.335 30.24C51.4657 30.24 52.2843 30.456 52.791 30.888C53.303 31.32 53.583 32.032 53.631 33.024C53.6417 33.2 53.6443 33.4133 53.639 33.664C53.6337 33.9093 53.6257 34.0533 53.615 34.096H51.231ZM54.8926 40V30.4H57.3566V31.6H57.7886C57.8526 31.1253 58.0126 30.7973 58.2686 30.616C58.5246 30.4293 58.8553 30.336 59.2606 30.336C59.4046 30.336 59.546 30.3413 59.6846 30.352C59.8233 30.3627 59.9326 30.3733 60.0126 30.384V32.208H59.2926C58.7326 32.208 58.29 32.2853 57.9646 32.44C57.6393 32.5947 57.4366 32.864 57.3566 33.248V40H54.8926ZM64.0168 40.16C63.2008 40.16 62.5474 40.0533 62.0568 39.84C61.5661 39.6267 61.2034 39.2853 60.9688 38.816C60.7394 38.3413 60.6034 37.7173 60.5608 36.944C60.5501 36.7413 60.5421 36.4853 60.5368 36.176C60.5314 35.8613 60.5288 35.5307 60.5288 35.184C60.5288 34.832 60.5314 34.5013 60.5368 34.192C60.5421 33.8827 60.5501 33.632 60.5608 33.44C60.6088 32.656 60.7501 32.0293 60.9848 31.56C61.2194 31.0907 61.5794 30.7547 62.0648 30.552C62.5554 30.344 63.2061 30.24 64.0168 30.24C64.8488 30.24 65.5074 30.3493 65.9928 30.568C66.4781 30.7867 66.8328 31.1307 67.0568 31.6C67.2808 32.0693 67.4141 32.6827 67.4568 33.44C67.4674 33.6427 67.4754 33.9013 67.4808 34.216C67.4914 34.5307 67.4968 34.8613 67.4968 35.208C67.4968 35.5547 67.4914 35.8827 67.4808 36.192C67.4754 36.5013 67.4674 36.752 67.4568 36.944C67.4088 37.7173 67.2728 38.3413 67.0488 38.816C66.8248 39.2853 66.4701 39.6267 65.9848 39.84C65.4994 40.0533 64.8434 40.16 64.0168 40.16ZM64.0168 38.368C64.3848 38.368 64.6461 38.2987 64.8008 38.16C64.9554 38.016 65.0354 37.8133 65.0408 37.552C65.0568 37.0773 65.0674 36.6453 65.0728 36.256C65.0834 35.8613 65.0888 35.4853 65.0888 35.128C65.0888 34.7653 65.0834 34.4 65.0728 34.032C65.0674 33.6587 65.0568 33.2587 65.0408 32.832C65.0354 32.576 64.9554 32.3787 64.8008 32.24C64.6461 32.1013 64.3848 32.032 64.0168 32.032C63.6594 32.032 63.3954 32.1067 63.2248 32.256C63.0594 32.4053 62.9714 32.5973 62.9608 32.832C62.9501 33.1573 62.9421 33.5093 62.9368 33.888C62.9314 34.2613 62.9288 34.6507 62.9288 35.056C62.9288 35.4613 62.9314 35.8747 62.9368 36.296C62.9474 36.712 62.9608 37.1307 62.9768 37.552C62.9874 37.8133 63.0728 38.016 63.2328 38.16C63.3981 38.2987 63.6594 38.368 64.0168 38.368ZM68.7989 40V27.2H71.1989V40H68.7989ZM72.7051 40V27.2H75.1051V40H72.7051ZM80.127 43.2V30.4H82.575V31.44H82.911C83.151 31.056 83.4017 30.76 83.663 30.552C83.9297 30.344 84.335 30.24 84.879 30.24C85.583 30.24 86.1297 30.448 86.519 30.864C86.9137 31.28 87.135 31.9733 87.183 32.944C87.1937 33.2107 87.2017 33.5467 87.207 33.952C87.2177 34.3573 87.223 34.7813 87.223 35.224C87.223 35.6667 87.2177 36.088 87.207 36.488C87.2017 36.8827 87.1937 37.2053 87.183 37.456C87.135 38.4213 86.8923 39.1147 86.455 39.536C86.023 39.952 85.455 40.16 84.751 40.16C84.3617 40.16 84.023 40.0693 83.735 39.888C83.4523 39.7013 83.1777 39.392 82.911 38.96H82.575V43.2H80.127ZM83.759 38.416C84.047 38.416 84.2763 38.3547 84.447 38.232C84.623 38.1093 84.719 37.92 84.735 37.664C84.7617 37.3013 84.7803 36.9067 84.791 36.48C84.8017 36.0533 84.807 35.616 84.807 35.168C84.807 34.72 84.8017 34.2827 84.791 33.856C84.7803 33.4293 84.7617 33.0347 84.735 32.672C84.719 32.448 84.6443 32.2773 84.511 32.16C84.3777 32.0427 84.175 31.984 83.903 31.984C83.6577 31.984 83.4017 32.048 83.135 32.176C82.8683 32.2987 82.6817 32.464 82.575 32.672V37.728C82.6977 37.9733 82.8523 38.1493 83.039 38.256C83.231 38.3627 83.471 38.416 83.759 38.416ZM91.8293 40.16C91.0133 40.16 90.3599 40.0533 89.8693 39.84C89.3786 39.6267 89.0159 39.2853 88.7812 38.816C88.5519 38.3413 88.4159 37.7173 88.3733 36.944C88.3626 36.7413 88.3546 36.4853 88.3493 36.176C88.3439 35.8613 88.3413 35.5307 88.3413 35.184C88.3413 34.832 88.3439 34.5013 88.3493 34.192C88.3546 33.8827 88.3626 33.632 88.3733 33.44C88.4213 32.656 88.5626 32.0293 88.7973 31.56C89.0319 31.0907 89.3919 30.7547 89.8773 30.552C90.3679 30.344 91.0186 30.24 91.8293 30.24C92.6613 30.24 93.3199 30.3493 93.8053 30.568C94.2906 30.7867 94.6453 31.1307 94.8693 31.6C95.0933 32.0693 95.2266 32.6827 95.2693 33.44C95.2799 33.6427 95.2879 33.9013 95.2933 34.216C95.3039 34.5307 95.3093 34.8613 95.3093 35.208C95.3093 35.5547 95.3039 35.8827 95.2933 36.192C95.2879 36.5013 95.2799 36.752 95.2693 36.944C95.2213 37.7173 95.0853 38.3413 94.8613 38.816C94.6373 39.2853 94.2826 39.6267 93.7973 39.84C93.3119 40.0533 92.6559 40.16 91.8293 40.16ZM91.8293 38.368C92.1973 38.368 92.4586 38.2987 92.6133 38.16C92.7679 38.016 92.8479 37.8133 92.8533 37.552C92.8693 37.0773 92.8799 36.6453 92.8853 36.256C92.8959 35.8613 92.9013 35.4853 92.9013 35.128C92.9013 34.7653 92.8959 34.4 92.8853 34.032C92.8799 33.6587 92.8693 33.2587 92.8533 32.832C92.8479 32.576 92.7679 32.3787 92.6133 32.24C92.4586 32.1013 92.1973 32.032 91.8293 32.032C91.4719 32.032 91.2079 32.1067 91.0373 32.256C90.8719 32.4053 90.7839 32.5973 90.7733 32.832C90.7626 33.1573 90.7546 33.5093 90.7493 33.888C90.7439 34.2613 90.7413 34.6507 90.7413 35.056C90.7413 35.4613 90.7439 35.8747 90.7493 36.296C90.7599 36.712 90.7733 37.1307 90.7893 37.552C90.7999 37.8133 90.8853 38.016 91.0453 38.16C91.2106 38.2987 91.4719 38.368 91.8293 38.368ZM98.8674 40.16C98.1634 40.16 97.6007 39.952 97.1794 39.536C96.758 39.1147 96.5474 38.4213 96.5474 37.456V30.4H98.9634L98.9954 37.664C98.9954 37.92 99.0594 38.1093 99.1874 38.232C99.3154 38.3547 99.5234 38.416 99.8114 38.416C100.067 38.416 100.329 38.3547 100.595 38.232C100.867 38.104 101.054 37.936 101.155 37.728V30.4H103.603V40H101.155V38.96H100.835C100.574 39.392 100.286 39.7013 99.9714 39.888C99.662 40.0693 99.294 40.16 98.8674 40.16ZM105.111 40V30.4H107.575V31.6H108.007C108.071 31.1253 108.231 30.7973 108.487 30.616C108.743 30.4293 109.074 30.336 109.479 30.336C109.623 30.336 109.765 30.3413 109.903 30.352C110.042 30.3627 110.151 30.3733 110.231 30.384V32.208H109.511C108.951 32.208 108.509 32.2853 108.183 32.44C107.858 32.5947 107.655 32.864 107.575 33.248V40H105.111ZM117.367 40.16C116.183 40.16 115.338 39.936 114.831 39.488C114.324 39.0347 114.039 38.3093 113.975 37.312C113.959 37.0613 113.948 36.7387 113.943 36.344C113.938 35.9493 113.935 35.5387 113.935 35.112C113.935 34.68 113.938 34.2853 113.943 33.928C113.954 33.5653 113.964 33.296 113.975 33.12C114.05 32.0853 114.348 31.3467 114.871 30.904C115.394 30.4613 116.215 30.24 117.335 30.24C118.466 30.24 119.284 30.456 119.791 30.888C120.303 31.32 120.583 32.032 120.631 33.024C120.636 33.152 120.639 33.3627 120.639 33.656C120.644 33.9493 120.644 34.272 120.639 34.624C120.639 34.976 120.631 35.3013 120.615 35.6H116.375C116.375 35.9093 116.378 36.2267 116.383 36.552C116.394 36.872 116.407 37.216 116.423 37.584C116.434 37.8613 116.508 38.0613 116.647 38.184C116.791 38.3067 117.031 38.368 117.367 38.368C117.682 38.368 117.9 38.3067 118.023 38.184C118.146 38.0613 118.215 37.856 118.231 37.568C118.242 37.408 118.247 37.2293 118.247 37.032C118.252 36.8347 118.247 36.5813 118.231 36.272H120.615C120.626 36.336 120.634 36.4827 120.639 36.712C120.644 36.936 120.642 37.136 120.631 37.312C120.583 38.3253 120.306 39.0533 119.799 39.496C119.292 39.9387 118.482 40.16 117.367 40.16ZM116.391 33.952H118.247C118.247 33.7707 118.247 33.5973 118.247 33.432C118.247 33.2667 118.244 33.1253 118.239 33.008C118.239 32.8853 118.236 32.8 118.231 32.752C118.215 32.496 118.14 32.312 118.007 32.2C117.874 32.088 117.65 32.032 117.335 32.032C116.999 32.032 116.764 32.088 116.631 32.2C116.503 32.312 116.434 32.496 116.423 32.752C116.418 32.9653 116.41 33.1733 116.399 33.376C116.394 33.5733 116.391 33.7653 116.391 33.952ZM121.877 40V30.4H124.277V31.44H124.741C124.981 31.056 125.237 30.76 125.509 30.552C125.781 30.344 126.181 30.24 126.709 30.24C127.429 30.24 127.984 30.448 128.373 30.864C128.768 31.28 128.965 31.9733 128.965 32.944V40H126.565V32.736C126.565 32.48 126.488 32.2907 126.333 32.168C126.178 32.0453 125.957 31.984 125.669 31.984C125.424 31.984 125.157 32.048 124.869 32.176C124.581 32.2987 124.384 32.464 124.277 32.672V40H121.877ZM136.867 40.16C135.774 40.16 134.992 39.9387 134.523 39.496C134.054 39.0533 133.795 38.3253 133.747 37.312C133.742 37.1147 133.742 36.9333 133.747 36.768C133.752 36.5973 133.758 36.4853 133.763 36.432H135.907C135.891 36.7413 135.886 36.9787 135.891 37.144C135.896 37.3093 135.902 37.456 135.907 37.584C135.923 37.872 136.011 38.0747 136.171 38.192C136.331 38.3093 136.563 38.368 136.867 38.368C137.235 38.368 137.502 38.3067 137.667 38.184C137.838 38.0613 137.923 37.856 137.923 37.568C137.923 37.4347 137.923 37.3573 137.923 37.336C137.923 37.3147 137.923 37.296 137.923 37.28C137.923 37.2587 137.923 37.184 137.923 37.056C137.923 36.896 137.878 36.7573 137.787 36.64C137.702 36.5227 137.55 36.4373 137.331 36.384L136.131 36.08C135.614 35.9467 135.171 35.776 134.803 35.568C134.44 35.3547 134.163 35.088 133.971 34.768C133.779 34.448 133.683 34.0533 133.683 33.584C133.683 33.504 133.683 33.4267 133.683 33.352C133.683 33.2773 133.683 33.2053 133.683 33.136C133.683 32.1013 133.931 31.36 134.427 30.912C134.923 30.464 135.774 30.24 136.979 30.24C138.067 30.24 138.843 30.456 139.307 30.888C139.776 31.32 140.035 32.032 140.083 33.024C140.094 33.1307 140.096 33.296 140.091 33.52C140.086 33.7387 140.078 33.8773 140.067 33.936H137.843C137.848 33.8293 137.851 33.6987 137.851 33.544C137.856 33.3893 137.856 33.24 137.851 33.096C137.851 32.9467 137.848 32.832 137.843 32.752C137.827 32.496 137.758 32.312 137.635 32.2C137.512 32.088 137.294 32.032 136.979 32.032C136.643 32.032 136.408 32.088 136.275 32.2C136.147 32.312 136.078 32.496 136.067 32.752C136.067 32.768 136.064 32.816 136.059 32.896C136.054 32.976 136.051 33.136 136.051 33.376C136.051 33.6 136.099 33.776 136.195 33.904C136.291 34.0267 136.467 34.1173 136.723 34.176L137.779 34.416C138.574 34.592 139.171 34.872 139.571 35.256C139.976 35.6347 140.179 36.192 140.179 36.928C140.179 36.9973 140.179 37.072 140.179 37.152C140.179 37.2267 140.179 37.3013 140.179 37.376C140.179 38.368 139.923 39.08 139.411 39.512C138.899 39.944 138.051 40.16 136.867 40.16ZM143.369 40.128C142.617 40.128 142.06 39.9547 141.697 39.608C141.34 39.2613 141.124 38.6613 141.049 37.808C141.044 37.7173 141.041 37.6 141.041 37.456C141.041 37.312 141.044 37.2 141.049 37.12C141.087 36.6827 141.193 36.312 141.369 36.008C141.545 35.6987 141.817 35.4293 142.185 35.2C142.559 34.9707 143.055 34.752 143.673 34.544C143.993 34.4373 144.295 34.3493 144.577 34.28C144.86 34.2107 145.188 34.1333 145.561 34.048V32.864C145.561 32.576 145.481 32.3653 145.321 32.232C145.161 32.0987 144.916 32.032 144.585 32.032C144.297 32.032 144.081 32.088 143.937 32.2C143.799 32.312 143.721 32.496 143.705 32.752C143.7 32.8107 143.695 32.944 143.689 33.152C143.689 33.3547 143.689 33.5547 143.689 33.752C143.695 33.9493 143.7 34.064 143.705 34.096H141.385C141.38 34.032 141.375 33.8907 141.369 33.672C141.364 33.4533 141.364 33.2373 141.369 33.024C141.396 32.3787 141.513 31.8507 141.721 31.44C141.935 31.0293 142.276 30.728 142.745 30.536C143.215 30.3387 143.855 30.24 144.665 30.24C145.492 30.24 146.14 30.3493 146.609 30.568C147.084 30.7813 147.42 31.1227 147.617 31.592C147.815 32.056 147.913 32.6613 147.913 33.408L147.897 40H145.513V38.96H145.145C144.948 39.3653 144.721 39.6613 144.465 39.848C144.209 40.0347 143.844 40.128 143.369 40.128ZM144.377 38.416C144.617 38.416 144.841 38.3573 145.049 38.24C145.257 38.1173 145.417 37.9573 145.529 37.76L145.545 35.568C145.332 35.616 145.113 35.6693 144.889 35.728C144.671 35.7813 144.468 35.8453 144.281 35.92C143.945 36.048 143.729 36.2213 143.633 36.44C143.537 36.6533 143.481 36.88 143.465 37.12C143.46 37.2533 143.457 37.344 143.457 37.392C143.457 37.44 143.46 37.52 143.465 37.632C143.492 37.888 143.58 38.0827 143.729 38.216C143.884 38.3493 144.1 38.416 144.377 38.416ZM150.353 40L148.817 30.4H151.297L151.889 35.216L152.049 38.24H152.689L152.849 35.216L153.457 30.4H155.937L154.385 40H150.353ZM160.157 40.16C159.341 40.16 158.688 40.0533 158.197 39.84C157.707 39.6267 157.344 39.2853 157.109 38.816C156.88 38.3413 156.744 37.7173 156.701 36.944C156.691 36.7413 156.683 36.4853 156.677 36.176C156.672 35.8613 156.669 35.5307 156.669 35.184C156.669 34.832 156.672 34.5013 156.677 34.192C156.683 33.8827 156.691 33.632 156.701 33.44C156.749 32.656 156.891 32.0293 157.125 31.56C157.36 31.0907 157.72 30.7547 158.205 30.552C158.696 30.344 159.347 30.24 160.157 30.24C160.989 30.24 161.648 30.3493 162.133 30.568C162.619 30.7867 162.973 31.1307 163.197 31.6C163.421 32.0693 163.555 32.6827 163.597 33.44C163.608 33.6427 163.616 33.9013 163.621 34.216C163.632 34.5307 163.637 34.8613 163.637 35.208C163.637 35.5547 163.632 35.8827 163.621 36.192C163.616 36.5013 163.608 36.752 163.597 36.944C163.549 37.7173 163.413 38.3413 163.189 38.816C162.965 39.2853 162.611 39.6267 162.125 39.84C161.64 40.0533 160.984 40.16 160.157 40.16ZM160.157 38.368C160.525 38.368 160.787 38.2987 160.941 38.16C161.096 38.016 161.176 37.8133 161.181 37.552C161.197 37.0773 161.208 36.6453 161.213 36.256C161.224 35.8613 161.229 35.4853 161.229 35.128C161.229 34.7653 161.224 34.4 161.213 34.032C161.208 33.6587 161.197 33.2587 161.181 32.832C161.176 32.576 161.096 32.3787 160.941 32.24C160.787 32.1013 160.525 32.032 160.157 32.032C159.8 32.032 159.536 32.1067 159.365 32.256C159.2 32.4053 159.112 32.5973 159.101 32.832C159.091 33.1573 159.083 33.5093 159.077 33.888C159.072 34.2613 159.069 34.6507 159.069 35.056C159.069 35.4613 159.072 35.8747 159.077 36.296C159.088 36.712 159.101 37.1307 159.117 37.552C159.128 37.8133 159.213 38.016 159.373 38.16C159.539 38.2987 159.8 38.368 160.157 38.368ZM164.94 29.008V27.2H167.34V29.008H164.94ZM164.94 40V30.4H167.34V40H164.94ZM168.846 40V30.4H171.31V31.6H171.742C171.806 31.1253 171.966 30.7973 172.222 30.616C172.478 30.4293 172.808 30.336 173.214 30.336C173.358 30.336 173.499 30.3413 173.638 30.352C173.776 30.3627 173.886 30.3733 173.966 30.384V32.208H173.246C172.686 32.208 172.243 32.2853 171.918 32.44C171.592 32.5947 171.39 32.864 171.31 33.248V40H168.846ZM180.645 37.936V35.184H177.909V33.392H180.645V30.64H182.469V33.392H185.205V35.184H182.469V37.936H180.645Z" fill="#FBFBFA"/>
</svg>
